<mxfile host="app.diagrams.net" agent="Mozilla/5.0 (Windows NT 10.0; Win64; x64) AppleWebKit/537.36 (KHTML, like Gecko) Chrome/131.0.0.0 Safari/537.36 Edg/131.0.0.0" version="25.0.3">
  <diagram id="C5RBs43oDa-KdzZeNtuy" name="Page-1">
    <mxGraphModel dx="464" dy="945" grid="1" gridSize="10" guides="1" tooltips="1" connect="1" arrows="1" fold="1" page="1" pageScale="1" pageWidth="827" pageHeight="1169" math="0" shadow="0">
      <root>
        <mxCell id="WIyWlLk6GJQsqaUBKTNV-0" />
        <mxCell id="WIyWlLk6GJQsqaUBKTNV-1" parent="WIyWlLk6GJQsqaUBKTNV-0" />
        <mxCell id="_qHceYHfZOpw9QuUmGIz-2" value="" style="edgeStyle=none;curved=1;rounded=0;orthogonalLoop=1;jettySize=auto;html=1;fontSize=12;startSize=8;endSize=8;" edge="1" parent="WIyWlLk6GJQsqaUBKTNV-1" source="_qHceYHfZOpw9QuUmGIz-0" target="_qHceYHfZOpw9QuUmGIz-1">
          <mxGeometry relative="1" as="geometry" />
        </mxCell>
        <mxCell id="_qHceYHfZOpw9QuUmGIz-0" value="ReadDataFromFile&lt;div&gt;Начало&lt;/div&gt;" style="strokeWidth=2;html=1;shape=mxgraph.flowchart.terminator;whiteSpace=wrap;" vertex="1" parent="WIyWlLk6GJQsqaUBKTNV-1">
          <mxGeometry x="120" y="40" width="200" height="80" as="geometry" />
        </mxCell>
        <mxCell id="_qHceYHfZOpw9QuUmGIz-12" value="" style="edgeStyle=none;curved=1;rounded=0;orthogonalLoop=1;jettySize=auto;html=1;fontSize=12;startSize=8;endSize=8;" edge="1" parent="WIyWlLk6GJQsqaUBKTNV-1" source="_qHceYHfZOpw9QuUmGIz-1" target="_qHceYHfZOpw9QuUmGIz-10">
          <mxGeometry relative="1" as="geometry" />
        </mxCell>
        <mxCell id="_qHceYHfZOpw9QuUmGIz-1" value="filename, data, count, f, num" style="shape=parallelogram;perimeter=parallelogramPerimeter;whiteSpace=wrap;html=1;fixedSize=1;" vertex="1" parent="WIyWlLk6GJQsqaUBKTNV-1">
          <mxGeometry x="120" y="160" width="200" height="80" as="geometry" />
        </mxCell>
        <mxCell id="_qHceYHfZOpw9QuUmGIz-4" value="" style="endArrow=none;dashed=1;html=1;rounded=0;fontSize=12;startSize=8;endSize=8;curved=1;exitX=1;exitY=0.5;exitDx=0;exitDy=0;" edge="1" parent="WIyWlLk6GJQsqaUBKTNV-1" source="_qHceYHfZOpw9QuUmGIz-1">
          <mxGeometry width="50" height="50" relative="1" as="geometry">
            <mxPoint x="340" y="510" as="sourcePoint" />
            <mxPoint x="360" y="200" as="targetPoint" />
          </mxGeometry>
        </mxCell>
        <mxCell id="_qHceYHfZOpw9QuUmGIz-5" value="" style="strokeWidth=2;html=1;shape=mxgraph.flowchart.annotation_2;align=left;labelPosition=right;pointerEvents=1;" vertex="1" parent="WIyWlLk6GJQsqaUBKTNV-1">
          <mxGeometry x="350" y="150" width="50" height="100" as="geometry" />
        </mxCell>
        <mxCell id="_qHceYHfZOpw9QuUmGIz-9" value="&lt;span style=&quot;font-size: 12px;&quot;&gt;filename - константа&lt;/span&gt;&lt;div&gt;&lt;span style=&quot;font-size: 12px;&quot;&gt;data, count, f, num - по ссылке&lt;/span&gt;&lt;/div&gt;" style="text;html=1;align=left;verticalAlign=middle;whiteSpace=wrap;rounded=0;fontSize=16;" vertex="1" parent="WIyWlLk6GJQsqaUBKTNV-1">
          <mxGeometry x="380" y="150" width="250" height="100" as="geometry" />
        </mxCell>
        <mxCell id="_qHceYHfZOpw9QuUmGIz-13" value="" style="edgeStyle=none;curved=1;rounded=0;orthogonalLoop=1;jettySize=auto;html=1;fontSize=12;startSize=8;endSize=8;" edge="1" parent="WIyWlLk6GJQsqaUBKTNV-1" source="_qHceYHfZOpw9QuUmGIz-10" target="_qHceYHfZOpw9QuUmGIz-11">
          <mxGeometry relative="1" as="geometry" />
        </mxCell>
        <mxCell id="_qHceYHfZOpw9QuUmGIz-10" value="&lt;div&gt;AssignFile(f, filename)&lt;/div&gt;&lt;div&gt;&amp;nbsp; Reset(f)&lt;/div&gt;" style="rounded=0;whiteSpace=wrap;html=1;" vertex="1" parent="WIyWlLk6GJQsqaUBKTNV-1">
          <mxGeometry x="120" y="280" width="200" height="80" as="geometry" />
        </mxCell>
        <mxCell id="_qHceYHfZOpw9QuUmGIz-15" value="" style="edgeStyle=none;curved=1;rounded=0;orthogonalLoop=1;jettySize=auto;html=1;fontSize=12;startSize=8;endSize=8;" edge="1" parent="WIyWlLk6GJQsqaUBKTNV-1" source="_qHceYHfZOpw9QuUmGIz-11" target="_qHceYHfZOpw9QuUmGIz-14">
          <mxGeometry relative="1" as="geometry" />
        </mxCell>
        <mxCell id="_qHceYHfZOpw9QuUmGIz-11" value="count := 0" style="rounded=0;whiteSpace=wrap;html=1;" vertex="1" parent="WIyWlLk6GJQsqaUBKTNV-1">
          <mxGeometry x="120" y="400" width="200" height="80" as="geometry" />
        </mxCell>
        <mxCell id="_qHceYHfZOpw9QuUmGIz-17" value="" style="edgeStyle=none;curved=1;rounded=0;orthogonalLoop=1;jettySize=auto;html=1;fontSize=12;startSize=8;endSize=8;" edge="1" parent="WIyWlLk6GJQsqaUBKTNV-1" source="_qHceYHfZOpw9QuUmGIz-14" target="_qHceYHfZOpw9QuUmGIz-16">
          <mxGeometry relative="1" as="geometry" />
        </mxCell>
        <mxCell id="_qHceYHfZOpw9QuUmGIz-14" value="Цикл 1&lt;div&gt;not Eof(f)&lt;/div&gt;" style="strokeWidth=2;html=1;shape=mxgraph.flowchart.loop_limit;whiteSpace=wrap;" vertex="1" parent="WIyWlLk6GJQsqaUBKTNV-1">
          <mxGeometry x="120" y="525" width="200" height="75" as="geometry" />
        </mxCell>
        <mxCell id="_qHceYHfZOpw9QuUmGIz-19" value="" style="edgeStyle=none;curved=1;rounded=0;orthogonalLoop=1;jettySize=auto;html=1;fontSize=12;startSize=8;endSize=8;" edge="1" parent="WIyWlLk6GJQsqaUBKTNV-1" source="_qHceYHfZOpw9QuUmGIz-16" target="_qHceYHfZOpw9QuUmGIz-18">
          <mxGeometry relative="1" as="geometry" />
        </mxCell>
        <mxCell id="_qHceYHfZOpw9QuUmGIz-16" value="&lt;div&gt;Read(f, num)&lt;/div&gt;&lt;div&gt;&lt;span style=&quot;background-color: initial;&quot;&gt;data[count] := num&lt;/span&gt;&lt;/div&gt;&lt;div&gt;&lt;span style=&quot;background-color: initial;&quot;&gt;Inc(count)&lt;/span&gt;&lt;/div&gt;" style="rounded=0;whiteSpace=wrap;html=1;" vertex="1" parent="WIyWlLk6GJQsqaUBKTNV-1">
          <mxGeometry x="120" y="640" width="200" height="80" as="geometry" />
        </mxCell>
        <mxCell id="_qHceYHfZOpw9QuUmGIz-21" value="" style="edgeStyle=none;curved=1;rounded=0;orthogonalLoop=1;jettySize=auto;html=1;fontSize=12;startSize=8;endSize=8;" edge="1" parent="WIyWlLk6GJQsqaUBKTNV-1" source="_qHceYHfZOpw9QuUmGIz-18" target="_qHceYHfZOpw9QuUmGIz-20">
          <mxGeometry relative="1" as="geometry" />
        </mxCell>
        <mxCell id="_qHceYHfZOpw9QuUmGIz-18" value="Цикл 1" style="strokeWidth=2;html=1;shape=mxgraph.flowchart.loop_limit;whiteSpace=wrap;direction=west;" vertex="1" parent="WIyWlLk6GJQsqaUBKTNV-1">
          <mxGeometry x="120" y="760" width="200" height="75" as="geometry" />
        </mxCell>
        <mxCell id="_qHceYHfZOpw9QuUmGIz-23" value="" style="edgeStyle=none;curved=1;rounded=0;orthogonalLoop=1;jettySize=auto;html=1;fontSize=12;startSize=8;endSize=8;" edge="1" parent="WIyWlLk6GJQsqaUBKTNV-1" source="_qHceYHfZOpw9QuUmGIz-20" target="_qHceYHfZOpw9QuUmGIz-22">
          <mxGeometry relative="1" as="geometry" />
        </mxCell>
        <mxCell id="_qHceYHfZOpw9QuUmGIz-20" value="CloseFile(f)" style="rounded=0;whiteSpace=wrap;html=1;" vertex="1" parent="WIyWlLk6GJQsqaUBKTNV-1">
          <mxGeometry x="120" y="880" width="200" height="80" as="geometry" />
        </mxCell>
        <mxCell id="_qHceYHfZOpw9QuUmGIz-22" value="ReadDataFromFile&lt;div&gt;Конец&lt;/div&gt;" style="strokeWidth=2;html=1;shape=mxgraph.flowchart.terminator;whiteSpace=wrap;" vertex="1" parent="WIyWlLk6GJQsqaUBKTNV-1">
          <mxGeometry x="120" y="1000" width="200" height="80" as="geometry" />
        </mxCell>
      </root>
    </mxGraphModel>
  </diagram>
</mxfile>
